# xmcd CD database file
#
# Track frame offsets:
#	150
#	24774
#	29052
#	36572
#	50400
#	62069
#	75236
#	101133
#	121461
#	132369
#	147854
#	158966
#	172491
#	186567
#	236327
#	253261
#	265082
#
# Disc length: 3707 seconds
#
# Revision: 1
# Processed by: cddbd v1.5.2PL0 Copyright (c) Steve Scherf et al.
# Submitted via: CDex 1.51
#
DISCID=fa0e7911
DTITLE=Frank Sinatra, Dean Martin, Sammy Davis Jr. - Simply Rat Pack 1 - Live On Stage
DYEAR=2009
DGENRE=Jazz
TTITLE0=Dean's Vegas Medley: I Don't Care If The Sun Don't Shine (When I'm In Las Vegas) - I Love Paris (I Love Vegas) - Dean Martin
TTITLE1=Volare - Dean Martin
TTITLE2=Ona An Evening In Roma - Dean Martin
TTITLE3=Monologue - Dean Martin
TTITLE4=The Lady Is A Tramp - Sammy Davis Jr.
TTITLE5=Who Can I Turn To? - Sammy Davis Jr.
TTITLE6=One For My Baby (And One For The Road) - Sammy Davis Jr.
TTITLE7=Luck Be A Lady - Frank Sinatra
TTITLE8=I Only Have Eyes For You - Frank Sinatra
TTITLE9=I've Got You Under My Skin - Frank Sinatra
TTITLE10=Fly Me To The Moon - Frank Sinatra
TTITLE11=Chicago (My Kind Of Town) - Frank Sinatra
TTITLE12=You Make Me Feel So Young - Frank Sinatra
TTITLE13=Rad Pack Monologue - Frank Sinatra, Dean Martin, Sammy Davis Jr.
TTITLE14=Guys and Dolls - Frank Sinatra, Dean Martin
TTITLE15=The Oldest Established Floating Crap Game In New York - Frank Sinatra, Dean Martin
TTITLE16=Birth Of The Blues - Frank Sinatra, Dean Martin, Sammy Davis Jr.
EXTD=YEAR: 2009
EXTT0=
EXTT1=
EXTT2=
EXTT3=
EXTT4=
EXTT5=
EXTT6=
EXTT7=
EXTT8=
EXTT9=
EXTT10=
EXTT11=
EXTT12=
EXTT13=
EXTT14=
EXTT15=
EXTT16=
PLAYORDER=
